<svg width="32" height="32" data-v-423bf9ae="" xmlns="http://www.w3.org/2000/svg" class="iconLeft" viewBox="0 0 90 90"><!----><!----><!----><defs data-v-423bf9ae=""><linearGradient data-v-423bf9ae="" gradientTransform="rotate(25)" id="80db9147-bf5d-4391-b95e-24775d1499aa" x1="0%" y1="0%" x2="100%" y2="0%"><stop data-v-423bf9ae="" offset="0%" style="stop-color: rgb(10, 55, 50); stop-opacity: 1;"></stop><stop data-v-423bf9ae="" offset="100%" style="stop-color: rgb(85, 195, 136); stop-opacity: 1;"></stop></linearGradient></defs><g data-v-423bf9ae="" id="3e5fc88f-fb82-4f28-b93f-e36d22269e36" transform="matrix(1,0,0,1,-5,-5)" stroke="none" fill="url(#80db9147-bf5d-4391-b95e-24775d1499aa)"><g clip-rule="evenodd"><path d="M50 27.28c-12.528 0-22.72 10.192-22.72 22.72 0 12.528 10.191 22.721 22.72 22.721S72.72 62.528 72.72 50 62.528 27.28 50 27.28zm9.062 14.47H46.507v7.17h10.865v2.731H46.507v10.518h-3.063V39.018h15.618v2.732z"></path><path d="M50 5C25.147 5 5 25.146 5 50c0 24.853 20.147 45 45 45s45-20.147 45-45C95 25.146 74.853 5 50 5zm0 70.378c-13.993 0-25.377-11.384-25.377-25.378 0-13.993 11.384-25.378 25.377-25.378S75.377 36.007 75.377 50c0 13.994-11.384 25.378-25.377 25.378z"></path></g></g><!----></svg>